<svg width="500" height="500" viewBox="0 0 500 500" fill="none" xmlns="http://www.w3.org/2000/svg">
<g clip-path="url(#clip0_587_239)">
<path d="M445.312 0H54.6875C24.4844 0 0 24.4844 0 54.6875V445.312C0 475.516 24.4844 500 54.6875 500H445.312C475.516 500 500 475.516 500 445.312V54.6875C500 24.4844 475.516 0 445.312 0Z" fill="#092E20"/>
<path d="M364.018 183.98V313.329C364.018 357.897 360.757 379.273 350.975 397.753C341.915 415.51 329.956 426.739 305.32 439.06L253.506 414.421C278.145 402.827 290.101 392.685 297.709 377.099C305.682 361.158 308.221 342.678 308.221 294.127V183.98H364.018ZM275.251 97.8101V356.088C246.627 361.522 225.611 363.696 202.786 363.696C134.666 363.696 99.1575 332.9 99.1575 273.838C99.1575 216.952 136.842 179.997 195.175 179.997C204.232 179.997 211.116 180.719 219.452 182.893V97.8101H275.251ZM200.612 224.922C172.35 224.922 156.044 242.315 156.044 272.749C156.044 302.462 171.625 318.766 200.249 318.766C206.406 318.766 211.481 318.404 219.452 317.319V227.819C212.93 225.647 207.496 224.922 200.612 224.922ZM364.018 98.1069V155.356H308.221V98.1069H364.018Z" fill="#FFFFFD"/>
</g>
<defs>
<clipPath id="clip0_587_239">
<rect width="500" height="500" fill="white"/>
</clipPath>
</defs>
</svg>
