<svg width="510" height="510" viewBox="0 0 510 510" fill="none" xmlns="http://www.w3.org/2000/svg">
<path d="M497.114 77.775L268.244 487.042C263.514 495.493 251.374 495.541 246.581 487.138L13.1681 77.8228C7.93662 68.6508 15.7659 57.5543 26.1612 59.407L255.279 100.354C256.741 100.621 258.239 100.621 259.701 100.354L484.022 59.4708C494.373 57.5862 502.25 68.591 497.114 77.775Z" fill="url(#paint0_linear_592_192)"/>
<path d="M364.411 5.69776L195.051 38.8796C193.7 39.1438 192.474 39.8494 191.567 40.8857C190.66 41.9221 190.122 43.2304 190.039 44.6052L179.612 220.587C179.556 221.552 179.725 222.517 180.107 223.405C180.488 224.294 181.071 225.081 181.81 225.705C182.548 226.329 183.421 226.772 184.361 227C185.3 227.228 186.28 227.234 187.222 227.018L234.381 216.121C235.397 215.887 236.455 215.913 237.458 216.194C238.461 216.476 239.378 217.005 240.123 217.734C240.869 218.462 241.42 219.365 241.725 220.362C242.031 221.358 242.081 222.415 241.872 223.436L227.859 292.043C227.645 293.099 227.708 294.192 228.044 295.216C228.379 296.24 228.974 297.16 229.771 297.885C230.568 298.609 231.54 299.115 232.591 299.352C233.642 299.588 234.737 299.548 235.768 299.235L264.886 290.377C269.4 289.007 273.743 292.975 272.795 297.597L250.522 405.362C249.135 412.104 258.1 415.778 261.838 410L264.328 406.143L402.347 130.704C404.665 126.082 400.669 120.822 395.613 121.802L347.063 131.174C346.019 131.377 344.939 131.308 343.929 130.973C342.919 130.639 342.011 130.05 341.294 129.264C340.577 128.478 340.073 127.521 339.833 126.484C339.592 125.447 339.622 124.366 339.919 123.344L371.595 13.5271C371.893 12.5017 371.922 11.4168 371.678 10.3771C371.435 9.33747 370.928 8.378 370.206 7.59124C369.484 6.80448 368.572 6.21695 367.557 5.8853C366.542 5.55365 365.459 5.48906 364.411 5.69776Z" fill="url(#paint1_linear_592_192)"/>
<defs>
<linearGradient id="paint0_linear_592_192" x1="7.46328" y1="44.7828" x2="292.321" y2="431.642" gradientUnits="userSpaceOnUse">
<stop stop-color="#41D1FF"/>
<stop offset="1" stop-color="#BD34FE"/>
</linearGradient>
<linearGradient id="paint1_linear_592_192" x1="242.131" y1="14.7024" x2="293.661" y2="368.189" gradientUnits="userSpaceOnUse">
<stop stop-color="#FFEA83"/>
<stop offset="0.083" stop-color="#FFDD35"/>
<stop offset="1" stop-color="#FFA800"/>
</linearGradient>
</defs>
</svg>
