<svg width="100" height="100" viewBox="0 0 100 100" fill="none" xmlns="http://www.w3.org/2000/svg">
<g clip-path="url(#clip0_582_189)">
<rect width="100" height="100" rx="50" fill="#D3E97A"/>
<path d="M31.5625 17.0938C32.9375 17.0938 35.6875 17.0938 39.8125 17.0938C39.8125 20.7031 39.8125 27.9219 39.8125 38.75C41.5885 38.75 45.1406 38.75 50.4688 38.75C50.526 38.8073 50.5547 38.8359 50.5547 38.8359C50.5547 40.2109 50.5547 42.9609 50.5547 47.0859C50.5547 47.0859 50.526 47.0859 50.4688 47.0859C48.6927 47.0859 45.1406 47.0859 39.8125 47.0859C39.8125 50.5807 39.8125 57.513 39.8125 67.8828C39.8125 69.487 40.3854 70.5469 41.5312 71.0625C42.2188 71.5208 42.9922 71.75 43.8516 71.75C44.9401 71.75 46.5156 71.3776 48.5781 70.6328C48.6354 70.5755 48.75 70.4896 48.9219 70.375C49.4375 71.6927 50.4688 74.2995 52.0156 78.1953C51.3281 78.4818 50.2109 78.8542 48.6641 79.3125C46.8307 79.7708 45.2266 80 43.8516 80C43.8516 80 43.8229 80 43.7656 80C41.0729 80 38.5234 79.1693 36.1172 77.5078C35.7161 77.2214 35.2005 76.763 34.5703 76.1328C34.3984 75.9036 34.1406 75.5885 33.7969 75.1875C33.3385 74.5573 32.9661 73.9844 32.6797 73.4688C31.9349 71.6927 31.5625 69.9453 31.5625 68.2266C31.5625 63.5286 31.5625 56.4818 31.5625 47.0859C30.5312 47.0859 28.4974 47.0859 25.4609 47.0859C25.4609 47.0859 25.4323 47.0859 25.375 47.0859C25.375 45.7109 25.375 42.9609 25.375 38.8359C25.4323 38.8359 25.4609 38.8073 25.4609 38.75C26.4922 38.75 28.526 38.75 31.5625 38.75C31.5625 35.1406 31.5625 27.9219 31.5625 17.0938ZM66.7969 69.1719C68.5156 69.1719 69.9479 69.9167 71.0938 71.4062C71.7812 72.3802 72.125 73.3828 72.125 74.4141C72.125 74.4714 72.125 74.5859 72.125 74.7578C72.125 76.1328 71.5807 77.3932 70.4922 78.5391C69.6901 79.2839 68.8594 79.7422 68 79.9141C67.599 79.9714 67.2839 80 67.0547 80C66.9401 80 66.7396 80 66.4531 80C65.5365 80 64.5625 79.6562 63.5312 78.9688C62.5573 78.2812 61.8984 77.3646 61.5547 76.2188C61.4401 75.7031 61.3828 75.2161 61.3828 74.7578C61.3828 74.7005 61.3828 74.5859 61.3828 74.4141C61.3828 73.0964 61.9271 71.8646 63.0156 70.7188C64.0469 69.6875 65.3073 69.1719 66.7969 69.1719Z" fill="black"/>
</g>
<defs>
<clipPath id="clip0_582_189">
<rect width="100" height="100" rx="50" fill="white"/>
</clipPath>
</defs>
</svg>
