<svg width="47" height="63" viewBox="0 0 47 63" fill="none" xmlns="http://www.w3.org/2000/svg">
<path d="M6.1875 0C7.5625 0 10.3125 0 14.4375 0C14.4375 3.60938 14.4375 10.8281 14.4375 21.6562C16.2135 21.6562 19.7656 21.6562 25.0938 21.6562C25.151 21.7135 25.1797 21.7422 25.1797 21.7422C25.1797 23.1172 25.1797 25.8672 25.1797 29.9922C25.1797 29.9922 25.151 29.9922 25.0938 29.9922C23.3177 29.9922 19.7656 29.9922 14.4375 29.9922C14.4375 33.487 14.4375 40.4193 14.4375 50.7891C14.4375 52.3932 15.0104 53.4531 16.1562 53.9688C16.8438 54.4271 17.6172 54.6562 18.4766 54.6562C19.5651 54.6562 21.1406 54.2839 23.2031 53.5391C23.2604 53.4818 23.375 53.3958 23.5469 53.2812C24.0625 54.599 25.0938 57.2057 26.6406 61.1016C25.9531 61.388 24.8359 61.7604 23.2891 62.2188C21.4557 62.6771 19.8516 62.9062 18.4766 62.9062C18.4766 62.9062 18.4479 62.9062 18.3906 62.9062C15.6979 62.9062 13.1484 62.0755 10.7422 60.4141C10.3411 60.1276 9.82552 59.6693 9.19531 59.0391C9.02344 58.8099 8.76562 58.4948 8.42188 58.0938C7.96354 57.4635 7.59115 56.8906 7.30469 56.375C6.5599 54.599 6.1875 52.8516 6.1875 51.1328C6.1875 46.4349 6.1875 39.388 6.1875 29.9922C5.15625 29.9922 3.1224 29.9922 0.0859375 29.9922C0.0859375 29.9922 0.0572917 29.9922 0 29.9922C0 28.6172 0 25.8672 0 21.7422C0.0572917 21.7422 0.0859375 21.7135 0.0859375 21.6562C1.11719 21.6562 3.15104 21.6562 6.1875 21.6562C6.1875 18.0469 6.1875 10.8281 6.1875 0ZM41.4219 52.0781C43.1406 52.0781 44.5729 52.8229 45.7188 54.3125C46.4062 55.2865 46.75 56.2891 46.75 57.3203C46.75 57.3776 46.75 57.4922 46.75 57.6641C46.75 59.0391 46.2057 60.2995 45.1172 61.4453C44.3151 62.1901 43.4844 62.6484 42.625 62.8203C42.224 62.8776 41.9089 62.9062 41.6797 62.9062C41.5651 62.9062 41.3646 62.9062 41.0781 62.9062C40.1615 62.9062 39.1875 62.5625 38.1562 61.875C37.1823 61.1875 36.5234 60.2708 36.1797 59.125C36.0651 58.6094 36.0078 58.1224 36.0078 57.6641C36.0078 57.6068 36.0078 57.4922 36.0078 57.3203C36.0078 56.0026 36.5521 54.7708 37.6406 53.625C38.6719 52.5938 39.9323 52.0781 41.4219 52.0781Z" fill="#D3E97A"/>
</svg>
